<mxfile host="app.diagrams.net" modified="2023-06-21T21:05:19.877Z" agent="Mozilla/5.0 (X11; Ubuntu; Linux x86_64; rv:109.0) Gecko/20100101 Firefox/113.0" etag="rfIfJI3aYCEkKKuB-oON" version="21.3.7" type="device">
  <diagram name="Page-1" id="8bPiSh8fG2Vt7bUStwU7">
    <mxGraphModel dx="778" dy="454" grid="1" gridSize="10" guides="1" tooltips="1" connect="1" arrows="1" fold="1" page="1" pageScale="1" pageWidth="850" pageHeight="1100" math="1" shadow="0">
      <root>
        <mxCell id="0" />
        <mxCell id="1" parent="0" />
        <mxCell id="FTeJ3BNqMcMZCD3cep9n-3" value="" style="ellipse;whiteSpace=wrap;html=1;aspect=fixed;fillColor=none;strokeWidth=3;strokeColor=#006600;" vertex="1" parent="1">
          <mxGeometry x="351" y="246" width="180" height="180" as="geometry" />
        </mxCell>
        <mxCell id="FTeJ3BNqMcMZCD3cep9n-4" value="" style="endArrow=none;html=1;rounded=0;strokeWidth=2;" edge="1" parent="1">
          <mxGeometry width="50" height="50" relative="1" as="geometry">
            <mxPoint x="398" y="417" as="sourcePoint" />
            <mxPoint x="450" y="337" as="targetPoint" />
          </mxGeometry>
        </mxCell>
        <mxCell id="FTeJ3BNqMcMZCD3cep9n-5" value="" style="endArrow=none;html=1;rounded=0;strokeWidth=2;" edge="1" parent="1">
          <mxGeometry width="50" height="50" relative="1" as="geometry">
            <mxPoint x="451" y="337" as="sourcePoint" />
            <mxPoint x="430" y="244" as="targetPoint" />
          </mxGeometry>
        </mxCell>
        <mxCell id="FTeJ3BNqMcMZCD3cep9n-7" value="" style="ellipse;whiteSpace=wrap;html=1;aspect=fixed;" vertex="1" parent="1">
          <mxGeometry x="449" y="335.5" width="3" height="3" as="geometry" />
        </mxCell>
        <mxCell id="FTeJ3BNqMcMZCD3cep9n-8" value="" style="endArrow=none;html=1;rounded=0;strokeWidth=2;strokeColor=#4D4D4D;" edge="1" parent="1">
          <mxGeometry width="50" height="50" relative="1" as="geometry">
            <mxPoint x="210" y="300" as="sourcePoint" />
            <mxPoint x="620" y="363" as="targetPoint" />
          </mxGeometry>
        </mxCell>
        <mxCell id="FTeJ3BNqMcMZCD3cep9n-9" value="" style="endArrow=none;html=1;rounded=0;strokeWidth=2;strokeColor=#FF0080;" edge="1" parent="1">
          <mxGeometry width="50" height="50" relative="1" as="geometry">
            <mxPoint x="210" y="300" as="sourcePoint" />
            <mxPoint x="450" y="337" as="targetPoint" />
          </mxGeometry>
        </mxCell>
        <mxCell id="FTeJ3BNqMcMZCD3cep9n-2" value="" style="endArrow=none;html=1;rounded=0;strokeWidth=3;" edge="1" parent="1">
          <mxGeometry width="50" height="50" relative="1" as="geometry">
            <mxPoint x="610" y="200" as="sourcePoint" />
            <mxPoint x="210" y="300" as="targetPoint" />
          </mxGeometry>
        </mxCell>
        <mxCell id="FTeJ3BNqMcMZCD3cep9n-1" value="" style="endArrow=none;html=1;rounded=0;strokeWidth=3;" edge="1" parent="1">
          <mxGeometry width="50" height="50" relative="1" as="geometry">
            <mxPoint x="550" y="510" as="sourcePoint" />
            <mxPoint x="210" y="300" as="targetPoint" />
          </mxGeometry>
        </mxCell>
        <mxCell id="FTeJ3BNqMcMZCD3cep9n-10" value="&lt;b&gt;&lt;span style=&quot;font-size: 16px;&quot;&gt;d&lt;/span&gt;&lt;/b&gt;" style="text;html=1;strokeColor=none;fillColor=none;align=center;verticalAlign=middle;whiteSpace=wrap;rounded=0;fontSize=16;fontColor=#FF0080;" vertex="1" parent="1">
          <mxGeometry x="300" y="322" width="60" height="30" as="geometry" />
        </mxCell>
        <mxCell id="FTeJ3BNqMcMZCD3cep9n-12" value="&lt;b&gt;r&lt;/b&gt;" style="text;html=1;strokeColor=none;fillColor=none;align=center;verticalAlign=middle;whiteSpace=wrap;rounded=0;fontSize=16;" vertex="1" parent="1">
          <mxGeometry x="394" y="252" width="60" height="30" as="geometry" />
        </mxCell>
        <mxCell id="FTeJ3BNqMcMZCD3cep9n-13" value="&lt;b&gt;r&lt;/b&gt;" style="text;html=1;strokeColor=none;fillColor=none;align=center;verticalAlign=middle;whiteSpace=wrap;rounded=0;fontSize=16;" vertex="1" parent="1">
          <mxGeometry x="407" y="370" width="60" height="30" as="geometry" />
        </mxCell>
        <mxCell id="FTeJ3BNqMcMZCD3cep9n-15" value="&lt;font size=&quot;1&quot; color=&quot;#4d4d4d&quot;&gt;&lt;span style=&quot;font-size: 14px;&quot;&gt;bisector&lt;/span&gt;&lt;/font&gt;" style="text;html=1;strokeColor=none;fillColor=none;align=center;verticalAlign=middle;whiteSpace=wrap;rounded=0;fontSize=16;" vertex="1" parent="1">
          <mxGeometry x="560" y="330" width="80" height="30" as="geometry" />
        </mxCell>
        <mxCell id="FTeJ3BNqMcMZCD3cep9n-18" value="" style="endArrow=none;html=1;rounded=0;" edge="1" parent="1">
          <mxGeometry width="50" height="50" relative="1" as="geometry">
            <mxPoint x="388" y="409" as="sourcePoint" />
            <mxPoint x="396" y="398" as="targetPoint" />
          </mxGeometry>
        </mxCell>
        <mxCell id="FTeJ3BNqMcMZCD3cep9n-19" value="" style="endArrow=none;html=1;rounded=0;" edge="1" parent="1">
          <mxGeometry width="50" height="50" relative="1" as="geometry">
            <mxPoint x="396" y="399" as="sourcePoint" />
            <mxPoint x="406" y="406" as="targetPoint" />
          </mxGeometry>
        </mxCell>
        <mxCell id="FTeJ3BNqMcMZCD3cep9n-20" value="&lt;b&gt;$$A$$&lt;/b&gt;" style="text;html=1;strokeColor=none;fillColor=none;align=center;verticalAlign=middle;whiteSpace=wrap;rounded=0;fontSize=16;" vertex="1" parent="1">
          <mxGeometry x="531" y="510" width="60" height="30" as="geometry" />
        </mxCell>
        <mxCell id="FTeJ3BNqMcMZCD3cep9n-21" value="&lt;b&gt;$$B$$&lt;/b&gt;" style="text;html=1;strokeColor=none;fillColor=none;align=center;verticalAlign=middle;whiteSpace=wrap;rounded=0;fontSize=16;" vertex="1" parent="1">
          <mxGeometry x="163" y="280" width="60" height="30" as="geometry" />
        </mxCell>
        <mxCell id="FTeJ3BNqMcMZCD3cep9n-22" value="&lt;b&gt;$$C$$&lt;/b&gt;" style="text;html=1;strokeColor=none;fillColor=none;align=center;verticalAlign=middle;whiteSpace=wrap;rounded=0;fontSize=16;" vertex="1" parent="1">
          <mxGeometry x="588" y="173" width="60" height="30" as="geometry" />
        </mxCell>
        <mxCell id="FTeJ3BNqMcMZCD3cep9n-23" value="" style="endArrow=none;html=1;rounded=0;strokeWidth=2;strokeColor=#0000FF;" edge="1" parent="1">
          <mxGeometry width="50" height="50" relative="1" as="geometry">
            <mxPoint x="452" y="300" as="sourcePoint" />
            <mxPoint x="212" y="300" as="targetPoint" />
          </mxGeometry>
        </mxCell>
        <mxCell id="FTeJ3BNqMcMZCD3cep9n-24" value="&lt;br&gt;&lt;div&gt;&lt;b&gt;$$I_1$$&lt;/b&gt;&lt;/div&gt;&lt;div&gt;&lt;b&gt;&lt;br&gt;&lt;/b&gt;&lt;/div&gt;" style="text;html=1;strokeColor=none;fillColor=none;align=center;verticalAlign=middle;whiteSpace=wrap;rounded=0;fontSize=16;" vertex="1" parent="1">
          <mxGeometry x="360.5" y="420" width="60" height="30" as="geometry" />
        </mxCell>
        <mxCell id="FTeJ3BNqMcMZCD3cep9n-25" value="&lt;br&gt;&lt;div&gt;&lt;b&gt;$$I_2$$&lt;/b&gt;&lt;/div&gt;&lt;div&gt;&lt;b&gt;&lt;br&gt;&lt;/b&gt;&lt;/div&gt;" style="text;html=1;strokeColor=none;fillColor=none;align=center;verticalAlign=middle;whiteSpace=wrap;rounded=0;fontSize=16;" vertex="1" parent="1">
          <mxGeometry x="400" y="216" width="60" height="30" as="geometry" />
        </mxCell>
        <mxCell id="FTeJ3BNqMcMZCD3cep9n-26" value="" style="endArrow=none;html=1;rounded=0;strokeWidth=2;strokeColor=#0000FF;" edge="1" parent="1">
          <mxGeometry width="50" height="50" relative="1" as="geometry">
            <mxPoint x="451" y="336" as="sourcePoint" />
            <mxPoint x="451" y="300" as="targetPoint" />
          </mxGeometry>
        </mxCell>
        <mxCell id="FTeJ3BNqMcMZCD3cep9n-27" value="&lt;b&gt;&lt;span style=&quot;font-size: 16px;&quot;&gt;d&lt;/span&gt;x&lt;/b&gt;" style="text;html=1;strokeColor=none;fillColor=none;align=center;verticalAlign=middle;whiteSpace=wrap;rounded=0;fontSize=16;fontColor=#0000CC;" vertex="1" parent="1">
          <mxGeometry x="315" y="275" width="60" height="30" as="geometry" />
        </mxCell>
        <mxCell id="FTeJ3BNqMcMZCD3cep9n-28" value="&lt;b&gt;&lt;span style=&quot;font-size: 16px;&quot;&gt;d&lt;/span&gt;y&lt;/b&gt;" style="text;html=1;strokeColor=none;fillColor=none;align=center;verticalAlign=middle;whiteSpace=wrap;rounded=0;fontSize=16;fontColor=#0000CC;" vertex="1" parent="1">
          <mxGeometry x="437" y="303" width="60" height="30" as="geometry" />
        </mxCell>
        <mxCell id="FTeJ3BNqMcMZCD3cep9n-29" value="" style="endArrow=none;html=1;rounded=0;strokeWidth=1;strokeColor=#0000FF;" edge="1" parent="1">
          <mxGeometry width="50" height="50" relative="1" as="geometry">
            <mxPoint x="452" y="310" as="sourcePoint" />
            <mxPoint x="440" y="310" as="targetPoint" />
          </mxGeometry>
        </mxCell>
        <mxCell id="FTeJ3BNqMcMZCD3cep9n-31" value="" style="endArrow=none;html=1;rounded=0;strokeWidth=1;strokeColor=#0000FF;" edge="1" parent="1">
          <mxGeometry width="50" height="50" relative="1" as="geometry">
            <mxPoint x="440.71" y="301" as="sourcePoint" />
            <mxPoint x="440.71" y="310" as="targetPoint" />
          </mxGeometry>
        </mxCell>
        <mxCell id="FTeJ3BNqMcMZCD3cep9n-32" value="&lt;b&gt;$$O$$&lt;/b&gt;" style="text;html=1;strokeColor=none;fillColor=none;align=center;verticalAlign=middle;whiteSpace=wrap;rounded=0;fontSize=16;" vertex="1" parent="1">
          <mxGeometry x="425" y="340" width="60" height="30" as="geometry" />
        </mxCell>
        <mxCell id="FTeJ3BNqMcMZCD3cep9n-33" value="&lt;b&gt;$$P$$&lt;/b&gt;" style="text;html=1;strokeColor=none;fillColor=none;align=center;verticalAlign=middle;whiteSpace=wrap;rounded=0;fontSize=16;" vertex="1" parent="1">
          <mxGeometry x="430" y="275" width="60" height="30" as="geometry" />
        </mxCell>
      </root>
    </mxGraphModel>
  </diagram>
</mxfile>
